<?xml version="1.0" encoding="UTF-8" standalone="no"?>
<!DOCTYPE svg PUBLIC "-//W3C//DTD SVG 1.1//EN" "http://www.w3.org/Graphics/SVG/1.1/DTD/svg11.dtd">
<svg width="100%" height="100%" viewBox="0 0 52 26" version="1.1" xmlns="http://www.w3.org/2000/svg" xmlns:xlink="http://www.w3.org/1999/xlink" xml:space="preserve" xmlns:serif="http://www.serif.com/" style="fill-rule:evenodd;clip-rule:evenodd;stroke-linejoin:round;stroke-miterlimit:1.41421;">
    <g transform="matrix(1,0,0,1,-778.95,-1396.95)">
        <g id="downvote" transform="matrix(-0.551256,7.77133e-17,-4.89644e-17,-0.460257,1288.7,2069)">
            <path d="M878.013,1404.85L878.014,1404.85C878.014,1404.85 909.511,1436.34 920.767,1447.6C921.742,1448.57 922.305,1450.02 922.305,1451.54C922.305,1453.06 921.742,1454.5 920.767,1455.48C920.11,1456.13 919.441,1456.8 918.822,1457.42C917.232,1459.01 914.92,1459.01 913.33,1457.42C904.593,1448.68 878.013,1422.11 878.013,1422.11C878.013,1422.11 851.433,1448.68 842.696,1457.42C841.106,1459.01 838.794,1459.01 837.204,1457.42C836.585,1456.8 835.916,1456.13 835.259,1455.48C834.284,1454.5 833.721,1453.06 833.721,1451.54C833.721,1450.02 834.284,1448.57 835.259,1447.6C846.515,1436.34 878.012,1404.85 878.012,1404.85L878.013,1404.85Z" style="fill:rgb(147,147,147);"/>
        </g>
    </g>
</svg>
