<?xml version="1.0" encoding="UTF-8" standalone="no"?>
<!DOCTYPE svg PUBLIC "-//W3C//DTD SVG 1.1//EN" "http://www.w3.org/Graphics/SVG/1.1/DTD/svg11.dtd">
<svg width="100%" height="100%" viewBox="0 0 61 44" version="1.1" xmlns="http://www.w3.org/2000/svg" xmlns:xlink="http://www.w3.org/1999/xlink" xml:space="preserve" xmlns:serif="http://www.serif.com/" style="fill-rule:evenodd;clip-rule:evenodd;stroke-linejoin:round;stroke-miterlimit:1.41421;">
    <g transform="matrix(1,0,0,1,-285.737,-994)">
        <g transform="matrix(0.32,0,0,0.32,0,0)">
            <g transform="matrix(2.76945,0,0,3.125,123.021,0)">
                <path d="M313.416,1025.41L346,1007.96L346,1033.6C346,1036.03 344.029,1038 341.6,1038L282.4,1038C279.972,1038 278,1036.03 278,1033.6L278,1006.45L313.416,1025.41ZM341.6,994C344.029,994 346,995.972 346,998.4L346,1001.16L313.416,1018.6L278,999.641L278,998.4C278,995.972 279.971,994 282.4,994L341.6,994Z" style="fill:rgb(163,163,163);"/>
            </g>
        </g>
    </g>
</svg>
