<?xml version="1.0" encoding="UTF-8" standalone="no"?>
<!DOCTYPE svg PUBLIC "-//W3C//DTD SVG 1.1//EN" "http://www.w3.org/Graphics/SVG/1.1/DTD/svg11.dtd">
<svg width="100%" height="100%" viewBox="0 0 40 36" version="1.1" xmlns="http://www.w3.org/2000/svg" xmlns:xlink="http://www.w3.org/1999/xlink" xml:space="preserve" xmlns:serif="http://www.serif.com/" style="fill-rule:evenodd;clip-rule:evenodd;stroke-linejoin:round;stroke-miterlimit:1.41421;">
    <g transform="matrix(1,0,0,1,-1039.12,-1406.35)">
        <g transform="matrix(0.763341,0,0,0.722635,674.132,556.61)">
            <g id="triangle" transform="matrix(-0.757764,9.27993e-17,-1.33631e-16,-1.09118,873.315,2547.24)">
                <path d="M470.902,1216.41C471.107,1215.59 471.921,1214.91 473.013,1214.67C474.105,1214.42 475.294,1214.64 476.097,1215.24C481.756,1219.45 491.215,1226.48 491.215,1226.48L468.401,1226.48C468.401,1226.48 469.854,1220.63 470.902,1216.41Z" style="fill:rgb(87,87,87);"/>
            </g>
        </g>
        <g transform="matrix(0.763341,0,0,0.722635,674.132,556.61)">
            <g id="react" transform="matrix(0.841194,0,0,0.935185,84.132,78.3567)">
                <path d="M529.778,1177.14C529.778,1175.19 528.112,1173.61 526.06,1173.61L472.119,1173.61C470.067,1173.61 468.401,1175.19 468.401,1177.14L468.401,1205.4C468.401,1207.35 470.067,1208.93 472.119,1208.93L526.06,1208.93C528.112,1208.93 529.778,1207.35 529.778,1205.4L529.778,1177.14Z" style="fill:rgb(87,87,87);"/>
            </g>
        </g>
    </g>
</svg>
